<svg width="19" height="17" viewBox="0 0 19 17" fill="none" xmlns="http://www.w3.org/2000/svg">
<path fill-rule="evenodd" clip-rule="evenodd" d="M13.0406 2.04243C13.4315 1.65078 13.9737 1.26013 14.2454 1.17443C15.5594 0.760344 16.7157 1.05062 17.7092 2.04398C18.4404 2.77517 18.7633 3.49026 18.7633 4.3783C18.7633 6.60998 16.2716 8.38113 14.2943 7.55492C14.0155 7.43845 13.7663 7.34315 13.7403 7.34315C13.7145 7.34315 13.7903 7.61323 13.9089 7.94318C14.2157 8.79705 14.3101 10.3775 14.1115 11.3334C13.845 12.6151 13.0925 13.9648 12.1349 14.8781C9.44183 17.4468 5.36517 17.4098 2.75173 14.793C-0.153965 11.8836 0.115272 7.26945 3.33877 4.73182C5.68706 2.88317 9.16709 2.82599 11.4903 4.59813L11.9865 4.9765V4.44677C11.9865 3.49068 12.2929 2.79168 13.0406 2.04243ZM11.5638 8.11966C11.1174 7.21157 10.2671 6.36602 9.37466 5.94261C8.45301 5.50523 6.94857 5.41092 6.05756 5.73465C2.19832 7.13702 1.89265 12.3162 5.56271 14.1208C6.14777 14.4085 6.47405 14.4673 7.46868 14.4637C8.48563 14.4601 8.77872 14.4023 9.38976 14.0856C10.4532 13.5346 10.8966 13.1064 11.4299 12.1153C11.8663 11.3045 11.9086 11.1195 11.9097 10.0256C11.9107 9.03495 11.8504 8.70246 11.5638 8.11966ZM16.1578 3.59577C16.3763 3.81418 16.5044 4.10361 16.5044 4.37864C16.5044 4.65366 16.3763 4.94309 16.1578 5.1615C15.9394 5.38005 15.65 5.5081 15.3749 5.5081C15.0999 5.5081 14.8105 5.38005 14.5921 5.1615C14.3735 4.94309 14.2455 4.65366 14.2455 4.37864C14.2455 4.10361 14.3735 3.81418 14.5921 3.59577C14.8105 3.37722 15.0999 3.24917 15.3749 3.24917C15.65 3.24917 15.9394 3.37722 16.1578 3.59577Z" fill="#DB3138"/>
</svg>
