<svg width="14" height="17" viewBox="0 0 14 17" fill="none" xmlns="http://www.w3.org/2000/svg">
<path fill-rule="evenodd" clip-rule="evenodd" d="M6.14596 0.855871C5.95551 1.0464 5.79962 1.31877 5.79962 1.46117C5.79962 1.895 5.38134 3.36712 5.08058 3.99218C4.39102 5.42478 3.01105 6.63835 1.4989 7.14176C0.52536 7.46593 0.156738 7.81494 0.156738 8.41263C0.156738 8.99436 0.524796 9.3644 1.33906 9.60121C3.60906 10.2614 5.33959 12.3961 5.74785 15.0395C6.01166 16.7478 7.84475 16.7478 8.10855 15.0395C8.51681 12.3961 10.2473 10.2614 12.5173 9.60121C13.3316 9.3644 13.6997 8.99436 13.6997 8.41263C13.6997 7.81494 13.331 7.46593 12.3575 7.14176C10.8454 6.63835 9.46538 5.42478 8.77582 3.99218C8.47506 3.36712 8.05678 1.895 8.05678 1.46117C8.05678 1.04597 7.42054 0.509399 6.9282 0.509399C6.65339 0.509399 6.36419 0.637404 6.14596 0.855871ZM7.39874 6.08259C7.61868 6.43089 8.21513 7.09773 8.72412 7.56416L9.64941 8.41249L8.72412 9.26081C8.21513 9.72724 7.61868 10.3941 7.39874 10.7424C7.17881 11.0907 6.96706 11.3756 6.92827 11.3756C6.88947 11.3756 6.67773 11.0907 6.45779 10.7424C6.23786 10.3941 5.64141 9.72724 5.13242 9.26081L4.20713 8.41249L5.13242 7.56416C5.64141 7.09773 6.23786 6.43089 6.45779 6.08259C6.67773 5.73428 6.88947 5.44934 6.92827 5.44934C6.96706 5.44934 7.17881 5.73428 7.39874 6.08259Z" fill="#DB3138"/>
</svg>
